# xmcd
#
# Track frame offsets: 
#        150
#        11734
#        24082
#        35720
#        45260
#        57263
#        71358
#        87097
#        100632
#        110900
#        124916
#        142690
#        147190
#        161039
#        170043
#        181459
#        200499
#        211710
#        227210
#        236551
#
# Disc length: 3355 seconds
#
# Revision: 3
# Processed by: cddbd v1.5.2PL0 Copyright (c) Steve Scherf et al.
# Submitted via: ExactAudioCopy v0.95b4
#
DISCID=0e0d1914
DTITLE=Dezerter - Deuter
DYEAR=1995
DGENRE=Punk Rock
TTITLE0=Mlodym hipokrytom
TTITLE1=Droga wojownika
TTITLE2=Szara masa
TTITLE3=Pieniadze
TTITLE4=Jak dlugo?
TTITLE5=Dla mnie tutaj
TTITLE6=Piosenka o mojej generacji
TTITLE7=Beton M-3
TTITLE8=Nigdy i w nic
TTITLE9=Nie ma ciszy w bloku
TTITLE10=Zle mysli
TTITLE11=Pistolet
TTITLE12=Urodzony na nowo
TTITLE13=Jeden swiat
TTITLE14=Dzieciece uczucia
TTITLE15=Czlowiek z zelaza
TTITLE16=Usmiechniete twarze
TTITLE17=Co za czas
TTITLE18=Totalna destrukcja
TTITLE19=Ostrzega sie
EXTD=
EXTT0=
EXTT1=
EXTT2=
EXTT3=
EXTT4=
EXTT5=
EXTT6=
EXTT7=
EXTT8=
EXTT9=
EXTT10=
EXTT11=
EXTT12=
EXTT13=
EXTT14=
EXTT15=
EXTT16=
EXTT17=
EXTT18=
EXTT19=
PLAYORDER=
